<svg xmlns="http://www.w3.org/2000/svg" width="54.873" height="54.873" viewBox="0 0 54.873 54.873"><defs><style>.a,.b{fill:#ccc;}.a{opacity:0.6;}</style></defs><g transform="translate(-2577.938 -794.853)"><path class="a" d="M2605.374,849.726a27.436,27.436,0,1,1,27.437-27.437A27.468,27.468,0,0,1,2605.374,849.726Zm0-53.473a26.036,26.036,0,1,0,26.036,26.036A26.066,26.066,0,0,0,2605.374,796.253Z"/><path class="b" d="M2615.949,820.989l1.425,1.324-12,10.781-12-10.781,1.425-1.324,10.575,9.457Z"/><path class="b" d="M2615.949,813.151l1.425,1.324-12,10.781-12-10.781,1.425-1.324,10.575,9.457Z"/></g></svg>