<svg xmlns="http://www.w3.org/2000/svg" width="78.141" height="78.141" viewBox="0 0 78.141 78.141"><defs><style>.a{fill:none;stroke:#fdba12;stroke-miterlimit:10;}.b{fill:#fdba12;}</style></defs><g transform="translate(-2138.026 -1293.1)"><circle class="a" cx="38.571" cy="38.571" r="38.571" transform="translate(2138.526 1293.6)"/><path class="b" d="M2161.205,1329.353l-2.59-2.59a26.108,26.108,0,0,1,36.963,0l-2.589,2.589a22.449,22.449,0,0,0-31.784,0Z"/><path class="b" d="M2166.071,1334.219l-2.59-2.59a19.235,19.235,0,0,1,27.231,0l-2.589,2.59a15.574,15.574,0,0,0-22.052,0Z"/><path class="b" d="M2170.937,1339.085l-2.59-2.589a12.361,12.361,0,0,1,17.5,0l-2.59,2.59a8.7,8.7,0,0,0-12.319,0Z"/><path class="b" d="M2177.1,1339.825a5.408,5.408,0,0,0-3.833,1.587l3.833,3.833,3.832-3.833A5.4,5.4,0,0,0,2177.1,1339.825Z"/></g></svg>