<svg xmlns="http://www.w3.org/2000/svg" width="34" height="23.004" viewBox="0 0 34 23.004"><defs><style>.a{fill:#fdba12;}</style></defs><g transform="translate(-2348.304 -1902.419)"><circle class="a" cx="0.895" cy="0.895" r="0.895" transform="translate(2376.286 1908.215)"/><circle class="a" cx="0.895" cy="0.895" r="0.895" transform="translate(2376.286 1913.026)"/><circle class="a" cx="0.895" cy="0.895" r="0.895" transform="translate(2376.286 1917.837)"/><path class="a" d="M2381.549,1902.419H2349.06a.756.756,0,0,0-.756.755v21.494a.756.756,0,0,0,.756.755h32.489a.755.755,0,0,0,.755-.755v-21.494A.755.755,0,0,0,2381.549,1902.419Zm-31.734,1.511h22.443v19.982h-22.443Zm30.978,19.982h-7.024V1903.93h7.024Z"/></g></svg>