<svg xmlns="http://www.w3.org/2000/svg" width="78.141" height="78.141" viewBox="0 0 78.141 78.141"><defs><style>.a{fill:none;stroke:#fdba12;stroke-miterlimit:10;}.b{fill:#fdba12;}</style></defs><g transform="translate(-2992.304 -1293.1)"><circle class="a" cx="38.571" cy="38.571" r="38.571" transform="translate(2992.804 1293.6)"/><path class="b" d="M3031.374,1312.571a19.6,19.6,0,1,0,19.6,19.6A19.621,19.621,0,0,0,3031.374,1312.571Zm0,36.759a17.159,17.159,0,1,1,17.159-17.16A17.179,17.179,0,0,1,3031.374,1349.33Z"/><path class="b" d="M3039.794,1323.75a11.908,11.908,0,1,0,3.493,8.42A11.828,11.828,0,0,0,3039.794,1323.75Zm-8.42,17.893a9.474,9.474,0,1,1,9.473-9.474A9.485,9.485,0,0,1,3031.374,1341.643Z"/><circle class="b" cx="4.366" cy="4.366" r="4.366" transform="translate(3027.008 1327.804)"/></g></svg>