<svg xmlns="http://www.w3.org/2000/svg" width="34.356" height="34" viewBox="0 0 34.356 34"><defs><style>.a{fill:#fdba12;}</style></defs><g transform="translate(-2347.248 -2046.464)"><path class="a" d="M2368.457,2069.8c-.862.159-1.731.29-2.586.48-4.287.953-6.7,3.694-7.539,7.933-.073.374-.137.751-.206,1.126s-.14.741-.211,1.111l-.127.013c-.1-.537-.188-1.076-.29-1.612a13.671,13.671,0,0,0-1.472-4.32,9.191,9.191,0,0,0-6.386-4.294c-.786-.178-1.586-.289-2.38-.431l-.012-.136c.371-.058.743-.118,1.115-.175a13.237,13.237,0,0,0,4.533-1.45,8.733,8.733,0,0,0,4.182-5.662c.262-.975.418-1.98.624-2.971a.578.578,0,0,1,.209-.362c.143.754.266,1.513.431,2.262a10.531,10.531,0,0,0,2.521,5.236,10.017,10.017,0,0,0,5.337,2.733c.648.14,1.311.211,1.965.319a2.189,2.189,0,0,1,.309.1Z"/><path class="a" d="M2373.88,2071.522c-.8-5.24-2.948-7.071-7.753-7.815,4.779-.4,7.245-3.077,7.712-7.8.462,4.757,2.945,7.415,7.765,7.835C2376.789,2064.16,2374.3,2066.807,2373.88,2071.522Z"/><path class="a" d="M2361.814,2057.331c-.355-3.258-2.069-5.128-5.378-5.414,3.647-.58,4.836-2.131,5.4-5.453.33,3.237,2.043,5.1,5.353,5.428C2363.887,2052.227,2362.178,2054.08,2361.814,2057.331Z"/></g></svg>