<svg xmlns="http://www.w3.org/2000/svg" width="33" height="30.595" viewBox="0 0 33 30.595"><defs><style>.a{fill:#fdba12;}</style></defs><path class="a" d="M2059.153,2065.984v-.007a2.232,2.232,0,1,0-.883-4.307h-.011a.744.744,0,1,0,.577,1.208.888.888,0,0,1,.246-.034.906.906,0,0,1,0,1.812h-5.05v-13.372c0-1.565-.539-2.948-2.362-3.031-4.274-.194-8.6,0-12.875,0-1.6,0-3.042.49-3.121,2.381-.07,1.656,0,3.329,0,4.986v9.035h-5.122a.906.906,0,0,1,0-1.812.9.9,0,0,1,.3.057.742.742,0,1,0,.613-1.191,2.235,2.235,0,1,0-.912,4.276h2.8v11.448h-2.8a.665.665,0,0,0,0,1.329h28.6a.665.665,0,0,0,0-1.329h-2.861v-11.448Zm-20.913-16.4c1.865-.17,3.824,0,5.7,0h6.686a6.8,6.8,0,0,1,1.15,0c1.018.183.931.957.931,1.7v13.371H2037V2052.25C2037,2051.1,2036.714,2049.721,2038.24,2049.583Zm5.917,16.4v11.448h-4.073v-11.448Zm1.329,0h4.074v11.448h-4.074Zm-6.731,0v11.448h-4.074v-11.448Zm16.208,11.448h-4.074v-11.448h4.074Z" transform="translate(-2028.316 -2048.166)"/></svg>