<svg xmlns="http://www.w3.org/2000/svg" width="78.141" height="78.141" viewBox="0 0 78.141 78.141"><defs><style>.a{fill:none;stroke:#fdba12;stroke-miterlimit:10;}.b{fill:#fdba12;}</style></defs><g transform="translate(-2566.303 -1064.967)"><circle class="a" cx="38.571" cy="38.571" r="38.571" transform="translate(2566.803 1065.467)"/><rect class="b" width="1.156" height="14.566" transform="translate(2609.785 1102.879)"/><rect class="b" width="1.156" height="14.566" transform="translate(2621.29 1102.879)"/><path class="b" d="M2586.789,1101.072a.578.578,0,1,0,0,1.156h37.17a.578.578,0,1,0,0-1.155Z"/><path class="b" d="M2596.494,1087.9h-5.932a.577.577,0,0,0-.578.577v11.938h1.155v-11.36h4.777v11.36h1.156v-11.938A.577.577,0,0,0,2596.494,1087.9Z"/><path class="b" d="M2604.583,1087.9h-5.932a.577.577,0,0,0-.578.577v11.938h1.155v-11.36H2604v11.36h1.155v-11.938A.576.576,0,0,0,2604.583,1087.9Z"/><path class="b" d="M2588.648,1086.551H2606.5v13.863h1.156v-14.441a.578.578,0,0,0-.578-.578h-19a.578.578,0,0,0-.578.578v14.441h1.156Z"/><rect class="b" width="1.324" height="14.566" transform="translate(2617.286 1102.879)"/><rect class="b" width="1.156" height="14.566" transform="translate(2590.612 1102.879)"/><rect class="b" width="1.156" height="14.566" transform="translate(2587.492 1102.879)"/><path class="b" d="M2586.789,1118.1a.578.578,0,0,0-.578.578v2.465a.578.578,0,0,0,.578.578h37.17a.578.578,0,0,0,.578-.578v-2.465a.578.578,0,0,0-.578-.578Zm36.592,2.465h-36.014v-1.309h36.014Z"/><rect class="b" width="1.155" height="14.566" transform="translate(2594.447 1102.879)"/><rect class="b" width="1.156" height="14.566" transform="translate(2605.951 1102.879)"/><rect class="b" width="1.155" height="14.566" transform="translate(2602.116 1102.879)"/><rect class="b" width="1.156" height="14.566" transform="translate(2598.281 1102.879)"/><path class="b" d="M2614.776,1117.446v-14.567h-1.156v14.567Z"/></g></svg>