<svg xmlns="http://www.w3.org/2000/svg" width="34.471" height="22.03" viewBox="0 0 34.471 22.03"><defs><style>.a{fill:#fdba12;}</style></defs><g transform="translate(-2027.581 -1976.322)"><path class="a" d="M2056.566,1978.4a5.482,5.482,0,0,0-1.426.188v-.231a2.032,2.032,0,0,0-2.03-2.03h-23.5a2.033,2.033,0,0,0-2.03,2.03v9.676a9.3,9.3,0,0,0,3.456,7.235v1.059a2.032,2.032,0,0,0,2.03,2.03h16.587a2.033,2.033,0,0,0,2.031-2.03v-1.059a9.185,9.185,0,0,0,3.127-4.8,5.426,5.426,0,0,0,1.754.287,5.492,5.492,0,0,0,5.486-5.486v-1.382A5.492,5.492,0,0,0,2056.566,1978.4Zm-1.426,5.486a1.426,1.426,0,0,1,2.851,0v1.382a1.426,1.426,0,1,1-2.851,0Zm-5.486,13.175h-16.587a.734.734,0,0,1-.734-.734v-.735h18.056v.735A.735.735,0,0,1,2049.654,1997.056Zm4.19-9.028a7.98,7.98,0,0,1-3.022,6.264H2031.9a7.981,7.981,0,0,1-3.022-6.264v-9.676a.735.735,0,0,1,.734-.734h23.5a.735.735,0,0,1,.734.734v9.676Zm6.912-2.765a4.189,4.189,0,0,1-5.689,3.913,9.139,9.139,0,0,0,.073-1.148v-.448a2.719,2.719,0,0,0,4.147-2.317v-1.382a2.721,2.721,0,0,0-4.147-2.317v-1.623a4.19,4.19,0,0,1,5.616,3.94Z"/></g></svg>