<svg xmlns="http://www.w3.org/2000/svg" width="78.141" height="78.141" viewBox="0 0 78.141 78.141"><defs><style>.a{fill:none;stroke:#fdba12;stroke-miterlimit:10;}.b{fill:#fdba12;}</style></defs><g transform="translate(-2138.026 -1064.967)"><circle class="a" cx="38.571" cy="38.571" r="38.571" transform="translate(2138.526 1065.467)"/><path class="b" d="M2172.943,1091.342c0-4.48,4.107-9.708,4.107-9.708s4.107,5.228,4.107,9.708a7.331,7.331,0,0,1-4.107,6.348S2172.943,1095.73,2172.943,1091.342Z"/><path class="b" d="M2167.9,1102.824c3.547,2.614,7.561.56,7.561.56s.84-4.48-2.707-7.094-10.175-2.521-10.175-2.521S2164.355,1100.211,2167.9,1102.824Z"/><path class="b" d="M2193.665,1099a4.423,4.423,0,0,0-4.48,4.481v4.48a5.209,5.209,0,0,0-1.961-.373,4.167,4.167,0,0,0-2.614.84l-5.041,3.64v-8.308a7.192,7.192,0,0,0,6.628-.934c3.548-2.613,5.322-9.055,5.322-9.055s-6.628-.093-10.175,2.521a7.559,7.559,0,0,0-2.707,6.908v9.616a10.92,10.92,0,0,0-1.494,1.4,7.114,7.114,0,0,0-1.493-1.4l-5.975-4.295a4.171,4.171,0,0,0-2.613-.84,4.594,4.594,0,0,0-1.961.373v-4.481a4.481,4.481,0,1,0-8.961,0v11.575a4.6,4.6,0,0,0,1.773,3.64l8.775,6.254a7.617,7.617,0,0,0,5.6,1.307,6.94,6.94,0,0,0,4.854-2.987,7.262,7.262,0,0,0,4.854,2.987,5.294,5.294,0,0,0,1.214.094,7.156,7.156,0,0,0,4.294-1.4l8.775-6.254a4.6,4.6,0,0,0,1.773-3.64v-11.575A4.543,4.543,0,0,0,2193.665,1099Zm-17.642,22.963a4.834,4.834,0,0,1-3.64,2.239c-.28,0-.654.187-.934.187a6.287,6.287,0,0,1-3.174-.933l-8.775-6.255a2.238,2.238,0,0,1-1.12-2.053v-11.575a2.521,2.521,0,0,1,5.041,0v10.175l6.254,4.014a.56.56,0,0,0,.374.094.348.348,0,0,0,.373-.281.555.555,0,0,0,.094-.373.508.508,0,0,0-.281-.467l-4.574-2.893a2.475,2.475,0,0,1,2.894-4.015l5.975,4.3a4.836,4.836,0,0,1,2.24,3.64A5.745,5.745,0,0,1,2176.023,1121.961Zm19.791-6.628a2.437,2.437,0,0,1-1.12,2.054l-8.774,6.254a6.3,6.3,0,0,1-3.174.934c-.281,0-.653-.187-.933-.187a5.43,5.43,0,0,1-3.641-2.24,5.75,5.75,0,0,1-.84-4.294,5.43,5.43,0,0,1,2.24-3.64l5.975-4.3a2.474,2.474,0,0,1,2.893,4.014l-4.575,2.9c-.279.092-.279.186-.279.372s0,.28.186.373a.348.348,0,0,0,.373.281.561.561,0,0,0,.374-.094l6.253-4.014v-10.175a2.521,2.521,0,0,1,5.041,0h0Z"/></g></svg>