<svg xmlns="http://www.w3.org/2000/svg" width="78.141" height="78.141" viewBox="0 0 78.141 78.141"><defs><style>.a{fill:none;stroke:#fdba12;stroke-miterlimit:10;}.b{fill:#fdba12;}</style></defs><g transform="translate(-2566.303 -1293.1)"><circle class="a" cx="38.571" cy="38.571" r="38.571" transform="translate(2566.803 1293.6)"/><path class="b" d="M2585.819,1322.374a7.771,7.771,0,0,0,.834,3.51l6.979,14.392,6.978-14.39a7.813,7.813,0,1,0-14.791-3.512Zm7.814-4.324a4.324,4.324,0,1,1-4.324,4.324A4.329,4.329,0,0,1,2593.633,1318.05Z"/><path class="b" d="M2624.194,1350.242a56.664,56.664,0,0,1-9.4-4.661,19.874,19.874,0,0,1-1.891-1.365,7.159,7.159,0,0,1-1.507-1.538,2.748,2.748,0,0,1-.507-1.7,3.178,3.178,0,0,1,.631-1.668,9.178,9.178,0,0,1,1.23-1.354c.328-.293.7-.567,1.068-.84a11.236,11.236,0,0,0,1.166-.94,15.535,15.535,0,0,0,2.452-2.667,9.585,9.585,0,0,0,1.395-2.891,8.44,8.44,0,0,0-.932-6.235,20.888,20.888,0,0,0-5.587-6.108,41.081,41.081,0,0,0-4.858-3.25l.537-.922a42.128,42.128,0,0,1,4.984,3.338,21.856,21.856,0,0,1,5.862,6.436,9.6,9.6,0,0,1,1.026,7.007,10.577,10.577,0,0,1-1.537,3.211,16.346,16.346,0,0,1-2.606,2.852,12.151,12.151,0,0,1-1.27,1.027c-.343.253-.687.506-.991.778a8.134,8.134,0,0,0-1.089,1.2,2.087,2.087,0,0,0-.417,1.1,1.73,1.73,0,0,0,.344,1.057,6.3,6.3,0,0,0,1.283,1.284,18.806,18.806,0,0,0,1.791,1.292,55.756,55.756,0,0,0,9.229,4.572l.332.134v.359l-.534,0Zm-29.349-.155a23.207,23.207,0,0,1-1.653-2.286,12.312,12.312,0,0,1-2.133-6.868,8.751,8.751,0,0,1,.164-1.393l.311-1.554,2.1,4.326,5.528-11.4,3.121-1.336a14.618,14.618,0,0,0,1.882-.9,6.761,6.761,0,0,0,2.41-2.005,3.694,3.694,0,0,0,.567-2.88c-.324-1.8-1.716-3.9-4.136-6.246a36.349,36.349,0,0,0-2.971-2.565l.654-.842a37.291,37.291,0,0,1,3.06,2.641c2.619,2.537,4.072,4.77,4.442,6.822a4.769,4.769,0,0,1-.738,3.675,7.666,7.666,0,0,1-2.7,2.293,16.07,16.07,0,0,1-2.076,1l-2.732,1.17-6.313,13.017-1.5-3.1a11.9,11.9,0,0,0,1.968,5.58,22,22,0,0,0,1.578,2.18Z"/><path class="b" d="M2608.415,1318.736c.33-.1,1.07-.315,1.07-.315s.258.257.343.338c.237.224.481.448.7.677a19.608,19.608,0,0,1,2.392,2.919,7.789,7.789,0,0,1,1.393,5.937l-1.986-.381a6.238,6.238,0,0,0-.417-4.445,16.843,16.843,0,0,0-3.408-4.627c-.032-.034-.065-.067-.1-.1Z"/><path class="b" d="M2608.816,1334.589a26.718,26.718,0,0,0-2.627,1.719,7,7,0,0,0-2.8,3.922l-3.062-.579c.542-1.971,2.233-3.629,4.4-5l.027-.017.022-.014c.716-.442,1.49-.849,2.242-1.27.674-.376,1.294-.77,1.905-1.181.117-.08.1-.067.1-.067s.648.329.883.444c.368.178.735.358,1.1.537C2610.312,1333.606,2609.6,1334.111,2608.816,1334.589Z"/><path class="b" d="M2605.621,1349.753a24.174,24.174,0,0,1-3.943-4.171l-.015-.02c-.044-.069-.122-.111-.012-.126l.314-.044,1.1-.155,1.293-.181c.123-.017.27-.04.393-.058l.186.215a20.338,20.338,0,0,0,2.709,2.766c.722.614,1.511,1.2,2.325,1.774"/></g></svg>