<svg xmlns="http://www.w3.org/2000/svg" width="137.308" height="44" viewBox="0 0 137.308 44"><defs><style>.a{fill:#f16739;}.b{fill:#fdba12;}.c{fill:#fff;}</style></defs><g transform="translate(-1989.72 -265.5)"><path class="a" d="M2006.793,300.8a1.746,1.746,0,0,1-1.749,0l-8.637-4.986a1.672,1.672,0,0,1-.836-1.449l.011-25.66a1.749,1.749,0,0,0-.831-1.489l-2.365-1.456a1.748,1.748,0,0,0-2.666,1.488V297.7a1.749,1.749,0,0,0,.875,1.514l14.449,8.342a1.746,1.746,0,0,0,1.749,0l5.865-3.386a1.749,1.749,0,0,0,.874-1.513l0-2.718a1.748,1.748,0,0,0-2.623-1.515Z"/><path class="b" d="M2007.645,278.5l8.6,4.964a1.75,1.75,0,0,1,.874,1.515h.007l-.023,19.751a1.75,1.75,0,0,0,.9,1.533l2.356,1.307a1.749,1.749,0,0,0,2.6-1.529l.012-24.439a1.75,1.75,0,0,0-.875-1.516l-14.448-8.341a1.746,1.746,0,0,0-1.749,0l-5.858,3.381a1.751,1.751,0,0,0-.874,1.514l0,2.717a1.749,1.749,0,0,0,2.623,1.516l4.111-2.373A1.746,1.746,0,0,1,2007.645,278.5Z"/><path class="c" d="M2042.183,278.082a4.685,4.685,0,0,0-1.666-1.271,5.343,5.343,0,0,0-2.242-.452,5.452,5.452,0,0,0-1.791.271,7.841,7.841,0,0,0-.8.323v-4.327h-2.47v15.293l.169.047c.465.131,1.068.263,1.791.393a14.333,14.333,0,0,0,2.522.2,6.539,6.539,0,0,0,2.415-.427,5.223,5.223,0,0,0,1.848-1.219,5.4,5.4,0,0,0,1.186-1.926,7.374,7.374,0,0,0,.413-2.528,8.251,8.251,0,0,0-.346-2.441A5.543,5.543,0,0,0,2042.183,278.082ZM2041,282.458a4.137,4.137,0,0,1-.911,2.874h0a3.082,3.082,0,0,1-2.417.992,10.024,10.024,0,0,1-1.339-.074c-.261-.035-.479-.073-.651-.112v-6.8a4.255,4.255,0,0,1,.912-.48,3.758,3.758,0,0,1,1.423-.264,3.03,3.03,0,0,1,1.373.287,2.5,2.5,0,0,1,.918.791,3.406,3.406,0,0,1,.525,1.222A7.086,7.086,0,0,1,2041,282.458Z"/><path class="c" d="M2054.649,278.031a5.055,5.055,0,0,0-1.753-1.254,5.771,5.771,0,0,0-4.411,0,5.061,5.061,0,0,0-1.754,1.254,5.772,5.772,0,0,0-1.134,1.944,7.9,7.9,0,0,0,0,4.978,5.8,5.8,0,0,0,1.134,1.932,5.061,5.061,0,0,0,1.754,1.254,5.747,5.747,0,0,0,4.411,0,5.056,5.056,0,0,0,1.753-1.254,5.774,5.774,0,0,0,1.134-1.932,7.9,7.9,0,0,0,0-4.977A5.747,5.747,0,0,0,2054.649,278.031Zm-6.9,4.427a4.625,4.625,0,0,1,.8-2.868,2.743,2.743,0,0,1,4.27,0,5.518,5.518,0,0,1,0,5.736,2.743,2.743,0,0,1-4.27,0h0A4.623,4.623,0,0,1,2047.751,282.458Z"/><path class="c" d="M2067.039,278.031a5.074,5.074,0,0,0-1.753-1.254,5.774,5.774,0,0,0-4.412,0,5.051,5.051,0,0,0-1.752,1.254,5.754,5.754,0,0,0-1.135,1.944,7.9,7.9,0,0,0,0,4.978,5.777,5.777,0,0,0,1.135,1.932h0a5.052,5.052,0,0,0,1.752,1.254,5.75,5.75,0,0,0,4.412,0,5.064,5.064,0,0,0,1.753-1.255,5.772,5.772,0,0,0,1.134-1.931,7.915,7.915,0,0,0,0-4.977A5.777,5.777,0,0,0,2067.039,278.031Zm-1.021,4.427a4.631,4.631,0,0,1-.8,2.868,2.744,2.744,0,0,1-4.271,0,5.523,5.523,0,0,1,0-5.736,2.744,2.744,0,0,1,4.271,0A4.631,4.631,0,0,1,2066.018,282.458Z"/><path class="c" d="M2076.643,285.824q-.215.086-.76.289h0a4.066,4.066,0,0,1-1.375.19,2.612,2.612,0,0,1-.832-.118,1.142,1.142,0,0,1-.542-.369,1.858,1.858,0,0,1-.341-.768,6,6,0,0,1-.124-1.339v-4.945h4.25v-2.146h-4.25v-3.137l-2.471.01v10.24a9.668,9.668,0,0,0,.19,2.022,3.725,3.725,0,0,0,.679,1.528,2.994,2.994,0,0,0,1.3.947,5.482,5.482,0,0,0,1.972.308,6.279,6.279,0,0,0,1.792-.236,7.659,7.659,0,0,0,1.095-.393l.164-.082-.492-2.1Z"/><path class="c" d="M2086.612,282.715a4.794,4.794,0,0,0-1.122-.716c-.422-.2-.906-.4-1.443-.6-.4-.141-.739-.277-1.019-.4a3.354,3.354,0,0,1-.676-.393,1.3,1.3,0,0,1-.368-.427,1.223,1.223,0,0,1-.113-.544.874.874,0,0,1,.5-.842,2.844,2.844,0,0,1,1.358-.307,6.394,6.394,0,0,1,1.6.176,4.847,4.847,0,0,1,.964.336l.272.145.472-2.223-.188-.069c-.12-.045-.287-.1-.5-.158s-.461-.114-.742-.165-.579-.1-.9-.132a8.676,8.676,0,0,0-.974-.056,4.939,4.939,0,0,0-3.143.924,3.369,3.369,0,0,0-.9,3.92,3.042,3.042,0,0,0,.747.957,4.567,4.567,0,0,0,1.079.671q.6.273,1.251.532a9.138,9.138,0,0,1,1.868.943,1.143,1.143,0,0,1,.488.978.861.861,0,0,1-.472.832,3.758,3.758,0,0,1-1.711.3,6.153,6.153,0,0,1-1.932-.247q-.751-.257-1.094-.386l-.253-.1-.46,2.175.174.075a12.07,12.07,0,0,0,1.169.388,8.859,8.859,0,0,0,2.4.258,6,6,0,0,0,3.421-.84,2.907,2.907,0,0,0,1.254-2.542,3.651,3.651,0,0,0-.257-1.44A2.848,2.848,0,0,0,2086.612,282.715Z"/><path class="c" d="M2095.671,285.824q-.214.086-.76.289h0a4.064,4.064,0,0,1-1.375.19,2.624,2.624,0,0,1-.833-.118,1.147,1.147,0,0,1-.542-.369,1.863,1.863,0,0,1-.34-.769,5.953,5.953,0,0,1-.124-1.338v-4.945h4.25v-2.146h-4.25v-3.137l-2.471.01v10.24a9.668,9.668,0,0,0,.19,2.022,3.712,3.712,0,0,0,.679,1.528,2.981,2.981,0,0,0,1.3.947,5.479,5.479,0,0,0,1.971.308,6.286,6.286,0,0,0,1.793-.236,7.624,7.624,0,0,0,1.095-.393l.164-.082-.493-2.1Z"/><path class="c" d="M2104.153,276.611c-.183-.036-.382-.072-.6-.108s-.446-.067-.675-.09-.435-.033-.615-.033a11.6,11.6,0,0,0-2.42.232,13.826,13.826,0,0,0-1.8.494l-.153.055V288.3h2.47v-9.475c.13-.03.31-.069.538-.119a5.085,5.085,0,0,1,1.063-.113,6.75,6.75,0,0,1,1.365.113,6.639,6.639,0,0,1,.758.2l.254.091.435-2.211-.192-.065A3.927,3.927,0,0,0,2104.153,276.611Z"/><path class="c" d="M2113.62,277.613a3.532,3.532,0,0,0-1.428-.948,6.072,6.072,0,0,0-2.122-.328,11.461,11.461,0,0,0-2,.166,6.34,6.34,0,0,0-1.347.35l-.16.071.3,2.13.275-.114a5.958,5.958,0,0,1,1.066-.278,9.348,9.348,0,0,1,1.693-.136,2.8,2.8,0,0,1,1.165.2,1.74,1.74,0,0,1,.677.532,2,2,0,0,1,.348.775,4.285,4.285,0,0,1,.1.931v.274l-.025-.005c-.145-.029-.315-.061-.511-.1s-.41-.067-.633-.089a7.747,7.747,0,0,0-2.512.166,5,5,0,0,0-1.583.634,3.258,3.258,0,0,0-1.1,1.161,3.438,3.438,0,0,0-.408,1.709,4.13,4.13,0,0,0,.347,1.76,3.075,3.075,0,0,0,.98,1.2,4.177,4.177,0,0,0,1.461.652,7.664,7.664,0,0,0,1.8.2c.443,0,.9-.019,1.366-.055s.877-.076,1.268-.119.745-.091,1.058-.142l.918-.152v-7.207a6.826,6.826,0,0,0-.225-1.8A3.588,3.588,0,0,0,2113.62,277.613Zm-1.429,5.67v3a6,6,0,0,1-.7.076q-.545.033-1.249.033a3.386,3.386,0,0,1-1.756-.387,1.386,1.386,0,0,1-.58-1.3,1.26,1.26,0,0,1,.231-.795,1.755,1.755,0,0,1,.622-.5,2.734,2.734,0,0,1,.855-.248,7.379,7.379,0,0,1,.93-.063,7.663,7.663,0,0,1,1.139.073A3.415,3.415,0,0,1,2112.191,283.283Z"/><path class="c" d="M2126.615,279.951h0a5.418,5.418,0,0,0-1.184-1.926,5.255,5.255,0,0,0-1.849-1.219,6.554,6.554,0,0,0-2.415-.426,13.481,13.481,0,0,0-2.514.209c-.711.137-1.314.265-1.791.38l-.178.043v15.277h2.471v-4.327a7.466,7.466,0,0,0,.8.323,5.436,5.436,0,0,0,1.791.273,5.316,5.316,0,0,0,2.242-.454,4.649,4.649,0,0,0,1.666-1.27,5.547,5.547,0,0,0,1.025-1.934,8.163,8.163,0,0,0,.347-2.42A7.369,7.369,0,0,0,2126.615,279.951Zm-7.461-1.153c.165-.037.369-.07.607-.1a11.559,11.559,0,0,1,1.382-.063,3.1,3.1,0,0,1,2.419.982,4.11,4.11,0,0,1,.909,2.864,6.914,6.914,0,0,1-.166,1.553,3.419,3.419,0,0,1-.525,1.214,2.485,2.485,0,0,1-.918.79,3.015,3.015,0,0,1-1.373.288,3.749,3.749,0,0,1-1.423-.264,4.255,4.255,0,0,1-.912-.48Z"/><path class="c" d="M2040.441,295.144a3.3,3.3,0,0,0-1.336-.885,5.833,5.833,0,0,0-2.04-.313,11.158,11.158,0,0,0-1.962.162,6.247,6.247,0,0,0-1.294.334l.237,1.662a5.981,5.981,0,0,1,1.111-.291,9.424,9.424,0,0,1,1.736-.141,3,3,0,0,1,1.262.227,1.961,1.961,0,0,1,.766.6,2.233,2.233,0,0,1,.388.864,4.5,4.5,0,0,1,.109.981v.561c-.058-.014-.158-.036-.3-.065s-.313-.061-.508-.1-.4-.065-.614-.086a6.192,6.192,0,0,0-.627-.033,8.251,8.251,0,0,0-1.811.194,4.782,4.782,0,0,0-1.51.6,3,3,0,0,0-1.025,1.078,3.207,3.207,0,0,0-.378,1.6,3.887,3.887,0,0,0,.325,1.662,2.814,2.814,0,0,0,.906,1.11,3.885,3.885,0,0,0,1.38.615,7.356,7.356,0,0,0,1.748.194c.444,0,.9-.018,1.348-.054s.873-.075,1.261-.118.737-.09,1.046-.14l.723-.119v-7.011a6.613,6.613,0,0,0-.215-1.737A3.354,3.354,0,0,0,2040.441,295.144Zm-1.023,8.7a5.533,5.533,0,0,1-.917.119q-.55.031-1.262.032a3.579,3.579,0,0,1-1.876-.421,1.609,1.609,0,0,1-.692-1.5,1.482,1.482,0,0,1,.281-.939,2,2,0,0,1,.7-.56,2.921,2.921,0,0,1,.927-.27,7.612,7.612,0,0,1,.96-.065,7.8,7.8,0,0,1,1.174.076,2.636,2.636,0,0,1,.7.183Z"/><path class="c" d="M2046.563,303.524a1.13,1.13,0,0,1-.28-.517,3.28,3.28,0,0,1-.086-.82V291.6h-2.007V302.51a3.152,3.152,0,0,0,.778,2.352,3.847,3.847,0,0,0,2.631.8l.281-1.683a5.4,5.4,0,0,1-.8-.161A1.217,1.217,0,0,1,2046.563,303.524Z"/><path class="c" d="M2051.728,303.524a1.121,1.121,0,0,1-.281-.517,3.333,3.333,0,0,1-.086-.82V291.6h-2.007V302.51a3.152,3.152,0,0,0,.778,2.352,3.849,3.849,0,0,0,2.632.8l.28-1.683a5.409,5.409,0,0,1-.8-.161A1.217,1.217,0,0,1,2051.728,303.524Z"/><path class="c" d="M2059.259,293.946a5.125,5.125,0,0,0-1.9.367,4.645,4.645,0,0,0-1.64,1.1,5.43,5.43,0,0,0-1.144,1.845,7.157,7.157,0,0,0-.43,2.6,7.8,7.8,0,0,0,.333,2.341,4.976,4.976,0,0,0,1.025,1.844,4.735,4.735,0,0,0,1.758,1.219,6.622,6.622,0,0,0,2.535.442,9.108,9.108,0,0,0,2.082-.216,5.876,5.876,0,0,0,1.283-.41l-.281-1.682a6.39,6.39,0,0,1-1.088.356,7.388,7.388,0,0,1-1.781.183,3.712,3.712,0,0,1-2.761-.906,4.1,4.1,0,0,1-1.013-2.653h7.679a3.158,3.158,0,0,0,.021-.378v-.334a6.5,6.5,0,0,0-1.208-4.3A4.321,4.321,0,0,0,2059.259,293.946Zm-2.978,4.811a4.924,4.924,0,0,1,.271-1.143,3.224,3.224,0,0,1,.57-.993,2.917,2.917,0,0,1,.9-.7,2.661,2.661,0,0,1,1.221-.27,2.339,2.339,0,0,1,1.929.874,3.361,3.361,0,0,1,.681,2.233Z"/><path class="c" d="M2071.474,298.8q-.6,2.223-1.423,4.487-.519-1.1-.992-2.287t-.885-2.373q-.411-1.185-.744-2.308t-.573-2.092H2064.7a47.551,47.551,0,0,0,1.953,5.878q1.174,2.9,2.535,5.49a4.554,4.554,0,0,1-1.21,1.715,2.921,2.921,0,0,1-1.854.529,3,3,0,0,1-.744-.1,3.976,3.976,0,0,1-.616-.205l-.365,1.617a2.222,2.222,0,0,0,.289.109c.137.043.288.082.455.118s.334.065.506.087a4.118,4.118,0,0,0,.5.032,5.378,5.378,0,0,0,1.586-.216,3.754,3.754,0,0,0,1.262-.669,5.091,5.091,0,0,0,1.025-1.154,11.592,11.592,0,0,0,.9-1.672q1.1-2.545,2.049-5.468t1.726-6.094h-2.072Q2072.077,296.579,2071.474,298.8Z"/></g></svg>