<svg xmlns="http://www.w3.org/2000/svg" width="32" height="32" viewBox="0 0 32 32"><defs><style>.a{fill:#fdba12;}</style></defs><g transform="translate(-2667.352 -2047.464)"><path class="a" d="M2687.291,2054.677h-11.408v18.55h1.5v-7.106h9.91a5.722,5.722,0,0,0,0-11.444Zm0,9.947h-9.91v-8.45h9.91a4.225,4.225,0,1,1,0,8.45Z"/><path class="a" d="M2694.97,2047.464h-23.236a4.335,4.335,0,0,0-4.382,4.382v23.236a4.335,4.335,0,0,0,4.382,4.382h23.236a4.335,4.335,0,0,0,4.382-4.382v-23.236A4.334,4.334,0,0,0,2694.97,2047.464Zm3.364,27.618a3.29,3.29,0,0,1-3.364,3.363h-23.236a3.289,3.289,0,0,1-3.363-3.363v-23.236a3.289,3.289,0,0,1,3.363-3.363h23.236a3.289,3.289,0,0,1,3.364,3.363Z"/></g></svg>