<svg xmlns="http://www.w3.org/2000/svg" width="31.058" height="21" viewBox="0 0 31.058 21"><defs><style>.a{fill:#fdba12;}</style></defs><g transform="translate(-2991.357 -1976.837)"><path class="a" d="M3022.415,1976.837h-31.058v21h31.058Zm-1.167,19.833h-28.725V1978h28.725Z"/><rect class="a" width="1.167" height="12.25" transform="translate(3003.576 1981.504)"/><path class="a" d="M3007.758,1987.629h10.907a.591.591,0,1,0,0-1.167h-10.907a.591.591,0,1,0,0,1.167Z"/><path class="a" d="M3007.758,1990.62h10.907a.59.59,0,1,0,0-1.166h-10.907a.59.59,0,1,0,0,1.166Z"/><path class="a" d="M3007.758,1993.753h10.907a.59.59,0,1,0,0-1.166h-10.907a.59.59,0,1,0,0,1.166Z"/><rect class="a" width="4.198" height="4.897" transform="translate(3015.149 1979.559)"/></g></svg>