<svg xmlns="http://www.w3.org/2000/svg" width="31.319" height="32.397" viewBox="0 0 31.319 32.397"><defs><style>.a{fill:#fdba12;}</style></defs><g transform="translate(-2991.096 -1822.15)"><path class="a" d="M3022.415,1844.821v-11.947a2.729,2.729,0,0,0-2.724-2.724h-3.279V1823.9a1.755,1.755,0,0,0-1.752-1.752h-15.809a1.755,1.755,0,0,0-1.752,1.752v6.248h-3.279a2.729,2.729,0,0,0-2.724,2.724v11.947a2.729,2.729,0,0,0,2.724,2.724h3.279v5.25a1.755,1.755,0,0,0,1.752,1.752h15.809a1.755,1.755,0,0,0,1.752-1.752v-5.257h3.279A2.719,2.719,0,0,0,3022.415,1844.821Zm-24.007-20.919a.443.443,0,0,1,.443-.443h15.809a.443.443,0,0,1,.443.443v6.248h-16.7Zm16.7,28.893a.443.443,0,0,1-.443.443h-15.815a.444.444,0,0,1-.443-.443v-13.29h16.7v13.29Zm6-7.974a1.417,1.417,0,0,1-1.415,1.415h-3.279v-7.385a.652.652,0,0,0-.655-.655h-18a.652.652,0,0,0-.655.655v7.385h-3.279a1.417,1.417,0,0,1-1.415-1.415v-11.947a1.417,1.417,0,0,1,1.415-1.415h25.871a1.417,1.417,0,0,1,1.415,1.415v11.947Z"/><path class="a" d="M2995.75,1834.156a.654.654,0,1,0,.463,1.118.667.667,0,0,0,.192-.463.68.68,0,0,0-.192-.463A.667.667,0,0,0,2995.75,1834.156Z"/><path class="a" d="M3002.124,1847.023h9.276a.655.655,0,1,0,0-1.31h-9.276a.655.655,0,1,0,0,1.31Z"/><path class="a" d="M3002.124,1850.732h9.276a.655.655,0,1,0,0-1.309h-9.276a.655.655,0,1,0,0,1.309Z"/><path class="a" d="M3002.124,1843.313h9.276a.654.654,0,1,0,0-1.309h-9.276a.654.654,0,1,0,0,1.309Z"/></g></svg>