<svg xmlns="http://www.w3.org/2000/svg" width="78.141" height="78.141" viewBox="0 0 78.141 78.141"><defs><style>.a{fill:none;stroke:#fdba12;stroke-miterlimit:10;}.b{fill:#fdba12;}</style></defs><g transform="translate(-2992.304 -1064.967)"><circle class="a" cx="38.571" cy="38.571" r="38.571" transform="translate(2992.804 1065.467)"/><path class="b" d="M3049.112,1092.07h-12.38v-9.1a.805.805,0,0,0-.809-.809h-22.287a.8.8,0,0,0-.808.809v38.383a.8.8,0,0,0,.808.808h35.476a.805.805,0,0,0,.809-.808v-28.477A.806.806,0,0,0,3049.112,1092.07Zm-14,.809v27.676h-20.67v-36.774h20.67v9.1Zm13.189,27.668h-11.572v-26.868H3048.3Z"/><path class="b" d="M3039.884,1097.787h5.267a.808.808,0,1,0,0-1.617h-5.267a.808.808,0,1,0,0,1.617Z"/><path class="b" d="M3039.884,1101.846h5.267a.808.808,0,1,0,0-1.617h-5.267a.808.808,0,1,0,0,1.617Z"/><path class="b" d="M3039.884,1105.9h5.267a.808.808,0,1,0,0-1.617h-5.267a.808.808,0,1,0,0,1.617Z"/><path class="b" d="M3039.884,1109.955h5.267a.808.808,0,1,0,0-1.617h-5.267a.808.808,0,1,0,0,1.617Z"/><path class="b" d="M3039.884,1114.006h5.267a.808.808,0,1,0,0-1.617h-5.267a.808.808,0,1,0,0,1.617Z"/><path class="b" d="M3039.884,1118.065h5.267a.808.808,0,1,0,0-1.617h-5.267a.808.808,0,1,0,0,1.617Z"/><path class="b" d="M3018.193,1090.086a.806.806,0,0,0,.809-.809v-1.788a.808.808,0,1,0-1.617,0v1.788A.805.805,0,0,0,3018.193,1090.086Z"/><path class="b" d="M3022.587,1090.086a.806.806,0,0,0,.809-.809v-1.788a.808.808,0,1,0-1.617,0v1.788A.805.805,0,0,0,3022.587,1090.086Z"/><path class="b" d="M3026.973,1090.086a.805.805,0,0,0,.808-.809v-1.788a.808.808,0,1,0-1.617,0v1.788A.811.811,0,0,0,3026.973,1090.086Z"/><path class="b" d="M3031.366,1090.086a.806.806,0,0,0,.809-.809v-1.788a.808.808,0,1,0-1.617,0v1.788A.805.805,0,0,0,3031.366,1090.086Z"/><path class="b" d="M3018.193,1095.623a.806.806,0,0,0,.809-.809v-1.8a.808.808,0,1,0-1.617,0v1.8A.81.81,0,0,0,3018.193,1095.623Z"/><path class="b" d="M3022.587,1095.623a.806.806,0,0,0,.809-.809v-1.8a.808.808,0,1,0-1.617,0v1.8A.81.81,0,0,0,3022.587,1095.623Z"/><path class="b" d="M3026.973,1095.623a.805.805,0,0,0,.808-.809v-1.8a.808.808,0,1,0-1.617,0v1.8A.817.817,0,0,0,3026.973,1095.623Z"/><path class="b" d="M3031.366,1095.623a.806.806,0,0,0,.809-.809v-1.8a.808.808,0,1,0-1.617,0v1.8A.81.81,0,0,0,3031.366,1095.623Z"/><path class="b" d="M3018.193,1101.151a.8.8,0,0,0,.809-.808v-1.788a.808.808,0,1,0-1.617,0v1.788A.8.8,0,0,0,3018.193,1101.151Z"/><path class="b" d="M3022.587,1101.151a.805.805,0,0,0,.809-.808v-1.788a.808.808,0,1,0-1.617,0v1.788A.8.8,0,0,0,3022.587,1101.151Z"/><path class="b" d="M3026.973,1101.151a.8.8,0,0,0,.808-.808v-1.788a.808.808,0,1,0-1.617,0v1.788A.81.81,0,0,0,3026.973,1101.151Z"/><path class="b" d="M3031.366,1101.151a.805.805,0,0,0,.809-.808v-1.788a.808.808,0,1,0-1.617,0v1.788A.8.8,0,0,0,3031.366,1101.151Z"/><path class="b" d="M3018.193,1106.688a.8.8,0,0,0,.809-.808v-1.789a.808.808,0,0,0-1.617,0v1.789A.81.81,0,0,0,3018.193,1106.688Z"/><path class="b" d="M3022.587,1106.688a.805.805,0,0,0,.809-.808v-1.789a.808.808,0,0,0-1.617,0v1.789A.809.809,0,0,0,3022.587,1106.688Z"/><path class="b" d="M3026.973,1106.688a.8.8,0,0,0,.808-.808v-1.789a.808.808,0,0,0-1.617,0v1.789A.816.816,0,0,0,3026.973,1106.688Z"/><path class="b" d="M3031.366,1106.688a.805.805,0,0,0,.809-.808v-1.789a.808.808,0,0,0-1.617,0v1.789A.809.809,0,0,0,3031.366,1106.688Z"/><path class="b" d="M3018.193,1112.217a.8.8,0,0,0,.809-.808v-1.789a.808.808,0,0,0-1.617,0v1.789A.8.8,0,0,0,3018.193,1112.217Z"/><path class="b" d="M3022.587,1112.217a.805.805,0,0,0,.809-.808v-1.789a.808.808,0,0,0-1.617,0v1.789A.8.8,0,0,0,3022.587,1112.217Z"/><path class="b" d="M3026.973,1112.217a.8.8,0,0,0,.808-.808v-1.789a.808.808,0,0,0-1.617,0v1.789A.81.81,0,0,0,3026.973,1112.217Z"/><path class="b" d="M3031.366,1112.217a.805.805,0,0,0,.809-.808v-1.789a.808.808,0,0,0-1.617,0v1.789A.8.8,0,0,0,3031.366,1112.217Z"/><path class="b" d="M3018.193,1117.754a.8.8,0,0,0,.809-.808v-1.8a.808.808,0,0,0-1.617,0v1.8A.81.81,0,0,0,3018.193,1117.754Z"/><path class="b" d="M3022.587,1117.754a.805.805,0,0,0,.809-.808v-1.8a.808.808,0,0,0-1.617,0v1.8A.81.81,0,0,0,3022.587,1117.754Z"/><path class="b" d="M3026.973,1117.754a.8.8,0,0,0,.808-.808v-1.8a.808.808,0,0,0-1.617,0v1.8A.816.816,0,0,0,3026.973,1117.754Z"/><path class="b" d="M3031.366,1117.754a.805.805,0,0,0,.809-.808v-1.8a.808.808,0,0,0-1.617,0v1.8A.81.81,0,0,0,3031.366,1117.754Z"/></g></svg>