<svg xmlns="http://www.w3.org/2000/svg" width="32.382" height="33" viewBox="0 0 32.382 33"><defs><style>.a{fill:#fdba12;}</style></defs><g transform="translate(-2991.084 -1897.421)"><path class="a" d="M3002.049,1905.423a4,4,0,1,1,4-4A4.006,4.006,0,0,1,3002.049,1905.423Zm0-7.095a3.094,3.094,0,1,0,3.1,3.094A3.1,3.1,0,0,0,3002.049,1898.328Z"/><path class="a" d="M3022.242,1913.738H3008.01v-2.458a3.891,3.891,0,0,0-3.888-3.887h-4.144a3.891,3.891,0,0,0-3.888,3.887v2.458h-3.781a1.226,1.226,0,0,0-1.225,1.224V1929.2a1.226,1.226,0,0,0,1.225,1.224h29.933a1.225,1.225,0,0,0,1.224-1.224v-14.235A1.225,1.225,0,0,0,3022.242,1913.738Zm-25.026-2.03a3.193,3.193,0,0,1,3.189-3.19h3.29a3.193,3.193,0,0,1,3.188,3.19v2.03h-9.667Zm25.123,17.587h-30.127v-14.431h30.127Z"/></g></svg>