<svg xmlns="http://www.w3.org/2000/svg" width="31.9" height="21.699" viewBox="0 0 31.9 21.699"><defs><style>.a{fill:#fdba12;}</style></defs><g transform="translate(-2349.003 -1827.499)"><path class="a" d="M2380.232,1827.5h-30.558a.671.671,0,0,0-.671.67v20.358a.672.672,0,0,0,.671.671h5.078a.672.672,0,0,0,.671-.671v-14.609h12.83v14.609a.672.672,0,0,0,.671.671h11.308a.672.672,0,0,0,.671-.671v-20.358A.671.671,0,0,0,2380.232,1827.5Zm-26.15,20.357h-3.737v-13.938h3.737Zm25.48,0h-9.967v-6.3h9.967Zm0-7.64h-9.967v-6.3h9.967Zm0-7.639h-29.217v-3.737h29.217Z"/><path class="a" d="M2376.321,1836.4h-3.486a.671.671,0,0,0,0,1.342h3.486a.671.671,0,0,0,0-1.342Z"/><path class="a" d="M2376.321,1844.037h-3.486a.671.671,0,1,0,0,1.341h3.486a.671.671,0,1,0,0-1.341Z"/></g></svg>