<svg xmlns="http://www.w3.org/2000/svg" width="34.816" height="27.562" viewBox="0 0 34.816 27.562"><defs><style>.a{fill:#fdba12;}</style></defs><g transform="translate(-2347.018 -1973.556)"><path class="a" d="M2364.426,1986.8a3.409,3.409,0,1,0-3.41-3.41A3.409,3.409,0,0,0,2364.426,1986.8Z"/><path class="a" d="M2357.516,1990.8v3.915h6.748l-3.294-7.14S2357.516,1987.625,2357.516,1990.8Z"/><path class="a" d="M2367.881,1987.579l-3.294,7.14h6.749V1990.8C2371.336,1987.625,2367.881,1987.579,2367.881,1987.579Z"/><path class="a" d="M2378.59,1973.556h-28.329a3.248,3.248,0,0,0-3.243,3.245v21.072a3.247,3.247,0,0,0,3.243,3.245h28.329a3.248,3.248,0,0,0,3.244-3.245V1976.8A3.249,3.249,0,0,0,2378.59,1973.556Zm2.244,24.317a2.247,2.247,0,0,1-2.244,2.245h-28.329a2.246,2.246,0,0,1-2.243-2.245V1976.8a2.246,2.246,0,0,1,2.243-2.245h28.329a2.248,2.248,0,0,1,2.244,2.245Z"/></g></svg>