<svg xmlns="http://www.w3.org/2000/svg" width="32" height="28.67" viewBox="0 0 32 28.67"><defs><style>.a{fill:#fdba12;}</style></defs><g transform="translate(-2667.352 -1899.586)"><path class="a" d="M2699.352,1927.787v-6.018a.625.625,0,0,0-.625-.625h-11.394l-.821-3.047h12.215a.626.626,0,0,0,.625-.626v-17.26a.625.625,0,0,0-.625-.625h-30.749a.625.625,0,0,0-.626.625v17.26a.626.626,0,0,0,.626.626h12.215l-.821,3.047h-11.394a.625.625,0,0,0-.625.625v6.018a.469.469,0,0,0,.469.469h31.061A.469.469,0,0,0,2699.352,1927.787Zm-30.749-10.941v-16.01h29.5v16.01Zm17.385,4.3h-5.272l.821-3.047h3.631Zm-17.385,5.862v-4.612h29.5v4.612"/><circle class="a" cx="1.028" cy="1.028" r="1.028" transform="translate(2693.841 1923.741)"/><circle class="a" cx="1.028" cy="1.028" r="1.028" transform="translate(2690.47 1923.741)"/></g></svg>