<svg xmlns="http://www.w3.org/2000/svg" width="30.999" height="31" viewBox="0 0 30.999 31"><defs><style>.a{fill:#fdba12;}</style></defs><path class="a" d="M2698.229,1971.837h-29.753a.623.623,0,0,0-.623.623v29.754a.623.623,0,0,0,.623.623h18.146a.623.623,0,0,0,0-1.246H2669.1v-14.518h8.688v5.971a.622.622,0,1,0,1.245,0V1980a.622.622,0,1,0-1.245,0v5.825H2669.1v-12.744H2686v7.8a.622.622,0,0,0,.622.623h6.588a.623.623,0,1,0,0-1.246h-5.965v-7.176h10.362v19.339h-10.985a.622.622,0,0,0,0,1.245h10.985v7.924h-4.4a.623.623,0,0,0,0,1.246h5.019a.623.623,0,0,0,.623-.623V1972.46A.623.623,0,0,0,2698.229,1971.837Z" transform="translate(-2667.853 -1971.837)"/></svg>